<COLLADA xmlns="http://www.collada.org/2005/11/COLLADASchema" version="1.4.1">
  <asset>
    <contributor/>
    <created>2026-10-07T14:57:10.164467</created>
    <modified>2026-10-07T14:57:10.164471</modified>
    <unit name="meter" meter="1.0"/>
    <up_axis>Z_UP</up_axis>
  </asset>
  <library_effects>
    <effect id="effect_Fusion" name="effect_Fusion">
      <profile_COMMON>
        <technique sid="common">
          <phong>
            <emission>
              <color>0.0 0.0 0.0 1.0</color>
            </emission>
            <ambient>
              <color>0.0 0.0 0.0 1.0</color>
            </ambient>
            <diffuse>
              <color>0.7921568751335144 0.8196078538894653 0.9333333373069763 1.0</color>
            </diffuse>
            <specular>
              <color>1 1 1 1.0</color>
            </specular>
            <shininess>
              <float>0.0</float>
            </shininess>
            <reflective>
              <color>0.0 0.0 0.0 1.0</color>
            </reflective>
            <reflectivity>
              <float>0.0</float>
            </reflectivity>
            <transparent>
              <color>0.0 0.0 0.0 1.0</color>
            </transparent>
            <transparency>
              <float>1.0</float>
            </transparency>
          </phong>
        </technique>
        <extra>
          <technique profile="GOOGLEEARTH">
            <double_sided>0</double_sided>
          </technique>
        </extra>
      </profile_COMMON>
    </effect>
    <effect id="effect_Part__Feature016" name="effect_Part__Feature016">
      <profile_COMMON>
        <technique sid="common">
          <phong>
            <emission>
              <color>0.0 0.0 0.0 1.0</color>
            </emission>
            <ambient>
              <color>0.0 0.0 0.0 1.0</color>
            </ambient>
            <diffuse>
              <color>0.7921568751335144 0.8196078538894653 0.9333333373069763 1.0</color>
            </diffuse>
            <specular>
              <color>1 1 1 1.0</color>
            </specular>
            <shininess>
              <float>0.0</float>
            </shininess>
            <reflective>
              <color>0.0 0.0 0.0 1.0</color>
            </reflective>
            <reflectivity>
              <float>0.0</float>
            </reflectivity>
            <transparent>
              <color>0.0 0.0 0.0 1.0</color>
            </transparent>
            <transparency>
              <float>1.0</float>
            </transparency>
          </phong>
        </technique>
        <extra>
          <technique profile="GOOGLEEARTH">
            <double_sided>0</double_sided>
          </technique>
        </extra>
      </profile_COMMON>
    </effect>
    <effect id="effect_Part__Feature018" name="effect_Part__Feature018">
      <profile_COMMON>
        <technique sid="common">
          <phong>
            <emission>
              <color>0.0 0.0 0.0 1.0</color>
            </emission>
            <ambient>
              <color>0.0 0.0 0.0 1.0</color>
            </ambient>
            <diffuse>
              <color>0.7921568751335144 0.8196078538894653 0.9333333373069763 1.0</color>
            </diffuse>
            <specular>
              <color>1 1 1 1.0</color>
            </specular>
            <shininess>
              <float>0.0</float>
            </shininess>
            <reflective>
              <color>0.0 0.0 0.0 1.0</color>
            </reflective>
            <reflectivity>
              <float>0.0</float>
            </reflectivity>
            <transparent>
              <color>0.0 0.0 0.0 1.0</color>
            </transparent>
            <transparency>
              <float>1.0</float>
            </transparency>
          </phong>
        </technique>
        <extra>
          <technique profile="GOOGLEEARTH">
            <double_sided>0</double_sided>
          </technique>
        </extra>
      </profile_COMMON>
    </effect>
  </library_effects>
  <library_geometries>
    <geometry id="geometry0" name="racks">
      <mesh>
        <source id="cubeverts-array0">
          <float_array count="360" id="cubeverts-array0-array">-18.58785 4.5 1.307302 -18.58785 4.5 -5.092698 -18.58785 0 1.307302 -18.58785 0 -5.092698 -17.28785 4.5 1.307302 -17.28785 0 1.307302 -17.28785 4.5 -5.092698 -17.28785 0 -5.092698 -10.98785 4.5 1.307302 -13.58785 4.5 1.307302 -10.98785 0 1.307302 -13.58785 0 1.307302 -10.98785 0 -5.192698 -10.98785 4.5 -5.192698 -13.58785 4.5 -5.192698 -13.58785 0 -5.192698 -4.687846 0 -5.067506 -4.687846 4.5 1.432494 -4.687846 0 1.432494 -4.687846 4.5 -5.067506 -7.287846 4.5 -5.067506 -7.287846 0 -5.067506 -7.287846 4.5 1.432494 -7.287846 0 1.432494 -0.9878455 4.5 1.332494 -0.9878455 4.5 -1.867506 -0.9878455 0 1.332494 -0.9878455 0 -1.867506 0.3121544 4.5 1.332494 0.3121544 0 1.332494 0.3121544 4.5 -1.867506 0.3121544 0 -1.867506 15.21215 4.5 5.007302 15.21215 0 11.49972 15.21215 0 5.007302 15.21215 4.5 11.49972 13.91215 4.5 5.007302 13.91215 0 5.007302 13.91215 4.5 11.49972 13.91215 0 11.49972 13.71215 4.5 5.007302 13.71215 0 11.49972 13.71215 0 5.007302 13.71215 4.5 11.49972 12.41215 4.5 5.007302 12.41215 0 5.007302 12.41215 4.5 11.49972 12.41215 0 11.49972 8.712154 4.5 5.007302 8.712154 0 11.49972 8.712154 0 5.007302 8.712154 4.5 11.49972 7.412154 4.5 5.007302 7.412154 0 5.007302 7.412154 4.5 11.49972 7.412154 0 11.49972 7.212154 4.5 5.007302 7.212154 0 11.49972 7.212154 0 5.007302 7.212154 4.5 11.49972 5.912154 4.5 5.007302 5.912154 0 5.007302 5.912154 4.5 11.49972 5.912154 0 11.49972 2.212155 4.5 5.007302 2.212155 0 11.49972 2.212155 0 5.007302 2.212155 4.5 11.49972 0.9121545 4.5 5.007302 0.9121545 0 5.007302 0.9121545 4.5 11.49972 0.9121545 0 11.49972 0.7121545 4.5 5.007302 0.7121545 0 11.49972 0.7121545 0 5.007302 0.7121545 4.5 11.49972 -0.5878455 4.5 5.007302 -0.5878455 0 5.007302 -0.5878455 4.5 11.49972 -0.5878455 0 11.49972 -4.287846 4.5 5.007302 -4.287846 0 11.49972 -4.287846 0 5.007302 -4.287846 4.5 11.49972 -5.587846 0 5.007302 -5.587846 4.5 5.007302 -5.587846 4.5 11.49972 -5.587846 0 11.49972 -5.787846 4.5 5.007302 -5.787846 0 11.49972 -5.787846 0 5.007302 -5.787846 4.5 11.49972 -7.087846 4.5 5.007302 -7.087846 0 5.007302 -7.087846 4.5 11.49972 -7.087846 0 11.49972 -10.78785 4.5 5.007302 -10.78785 0 11.49972 -10.78785 0 5.007302 -10.78785 4.5 11.49972 -12.08785 4.5 5.007302 -12.08785 0 5.007302 -12.08785 4.5 11.49972 -12.08785 0 11.49972 -12.28785 4.5 5.007302 -12.28785 0 11.49972 -12.28785 0 5.007302 -12.28785 4.5 11.49972 -13.58785 4.5 5.007302 -13.58785 0 5.007302 -13.58785 4.5 11.49972 -13.58785 0 11.49972 -17.33407 4.5 5.007302 -17.33407 0 11.49972 -17.33407 0 5.007302 -17.33407 4.5 11.49972 -18.63407 4.5 5.007302 -18.63407 0 5.007302 -18.63407 4.5 11.49972 -18.63407 0 11.49972</float_array>
          <technique_common>
            <accessor count="120" source="#cubeverts-array0-array" stride="3">
              <param type="float" name="X"/>
              <param type="float" name="Y"/>
              <param type="float" name="Z"/>
            </accessor>
          </technique_common>
        </source>
        <source id="cubenormals-array0">
          <float_array count="540" id="cubenormals-array0-array">-1 -0 -0 -1 0 0 0 0 1 0 0 1 1 0 0 1 0 -0 0 0 -1 0 0 -1 0 1 0 0 1 0 0 -1 0 0 -1 0 0 0 1 0 0 1 1 0 0 1 0 -0 0 0 -1 0 0 -1 -1 -0 0 -1 0 -0 0 1 0 0 1 0 0 -1 0 0 -1 0 1 0 0 1 0 -0 0 0 -1 0 0 -1 -1 -0 -0 -1 0 0 0 0 1 0 0 1 0 1 0 0 1 0 0 -1 0 0 -1 0 -1 -0 -0 -1 0 0 0 0 1 0 0 1 1 0 0 1 0 -0 0 0 -1 0 0 -1 0 1 0 0 1 0 0 -1 0 0 -1 0 1 0 0 1 0 -0 0 0 -1 0 0 -1 -1 -0 -0 -1 0 0 0 0 1 0 0 1 0 1 0 0 1 0 0 -1 0 0 -1 0 1 0 0 1 0 -0 0 0 -1 0 0 -1 -1 -0 -0 -1 0 0 0 0 1 0 0 1 0 1 0 0 1 0 0 -1 0 0 -1 0 1 0 0 1 0 -0 0 0 -1 0 0 -1 -1 -0 -0 -1 0 0 0 0 1 0 0 1 0 1 0 0 1 0 0 -1 0 0 -1 0 1 0 0 1 0 -0 0 0 -1 0 0 -1 -1 -0 -0 -1 0 0 0 0 1 0 0 1 0 1 0 0 1 0 0 -1 0 0 -1 0 1 0 0 1 0 -0 0 0 -1 0 0 -1 -1 -0 -0 -1 0 0 0 0 1 0 0 1 0 1 0 0 1 0 0 -1 0 0 -1 0 1 0 0 1 0 -0 0 0 -1 0 0 -1 -1 -0 -0 -1 0 0 0 0 1 0 0 1 0 1 0 0 1 0 0 -1 0 0 -1 0 1 0 0 1 0 -0 0 -0 -1 0 0 -1 -1 -0 -0 -1 0 0 0 0 1 0 0 1 0 1 0 0 1 0 0 -1 0 0 -1 0 1 0 0 1 0 -0 0 0 -1 0 0 -1 -1 -0 -0 -1 0 0 0 0 1 0 0 1 0 1 0 0 1 0 0 -1 0 0 -1 0 1 0 0 1 0 -0 0 0 -1 0 0 -1 -1 -0 -0 -1 0 0 0 0 1 0 0 1 0 1 0 0 1 0 0 -1 0 0 -1 0 1 0 0 1 0 -0 0 0 -1 0 0 -1 -1 -0 -0 -1 0 0 0 0 1 0 0 1 0 1 0 0 1 0 0 -1 0 0 -1 0 1 0 0 1 0 -0 0 0 -1 0 0 -1 -1 -0 -0 -1 0 0 0 0 1 0 0 1 0 1 0 0 1 0 0 -1 0 0 -1 0</float_array>
          <technique_common>
            <accessor count="180" source="#cubenormals-array0-array" stride="3">
              <param type="float" name="X"/>
              <param type="float" name="Y"/>
              <param type="float" name="Z"/>
            </accessor>
          </technique_common>
        </source>
        <vertices id="cubeverts-array0-vertices">
          <input semantic="POSITION" source="#cubeverts-array0"/>
        </vertices>
        <triangles count="180" material="ref_Fusion">
          <input offset="0" semantic="VERTEX" source="#cubeverts-array0-vertices"/>
          <input offset="1" semantic="NORMAL" source="#cubenormals-array0"/>
          <p>0 0 1 0 2 0 2 1 1 1 3 1 4 2 0 2 5 2 5 3 0 3 2 3 6 4 5 4 7 4 6 5 4 5 5 5 1 6 7 6 3 6 1 7 6 7 7 7 0 8 6 8 1 8 4 9 6 9 0 9 7 10 2 10 3 10 7 11 5 11 2 11 8 12 9 12 10 12 10 13 9 13 11 13 12 14 8 14 10 14 13 15 8 15 12 15 14 16 12 16 15 16 14 17 13 17 12 17 9 18 15 18 11 18 9 19 14 19 15 19 8 20 13 20 14 20 8 21 14 21 9 21 12 22 10 22 15 22 15 23 10 23 11 23 16 24 17 24 18 24 19 25 17 25 16 25 20 26 16 26 21 26 20 27 19 27 16 27 22 28 20 28 23 28 23 29 20 29 21 29 17 30 22 30 18 30 18 31 22 31 23 31 22 32 19 32 20 32 17 33 19 33 22 33 16 34 23 34 21 34 16 35 18 35 23 35 24 36 25 36 26 36 26 37 25 37 27 37 28 38 24 38 29 38 29 39 24 39 26 39 30 40 29 40 31 40 30 41 28 41 29 41 25 42 31 42 27 42 25 43 30 43 31 43 28 44 25 44 24 44 28 45 30 45 25 45 31 46 26 46 27 46 31 47 29 47 26 47 32 48 33 48 34 48 32 49 35 49 33 49 36 50 34 50 37 50 36 51 32 51 34 51 38 52 36 52 39 52 39 53 36 53 37 53 35 54 38 54 33 54 33 55 38 55 39 55 38 56 32 56 36 56 35 57 32 57 38 57 34 58 33 58 37 58 37 59 33 59 39 59 40 60 41 60 42 60 40 61 43 61 41 61 44 62 42 62 45 62 44 63 40 63 42 63 46 64 44 64 47 64 47 65 44 65 45 65 43 66 46 66 41 66 41 67 46 67 47 67 46 68 40 68 44 68 43 69 40 69 46 69 42 70 41 70 45 70 45 71 41 71 47 71 48 72 49 72 50 72 48 73 51 73 49 73 52 74 50 74 53 74 52 75 48 75 50 75 54 76 52 76 55 76 55 77 52 77 53 77 51 78 54 78 49 78 49 79 54 79 55 79 54 80 48 80 52 80 51 81 48 81 54 81 50 82 49 82 53 82 53 83 49 83 55 83 56 84 57 84 58 84 56 85 59 85 57 85 60 86 58 86 61 86 60 87 56 87 58 87 62 88 60 88 63 88 63 89 60 89 61 89 59 90 62 90 57 90 57 91 62 91 63 91 59 92 56 92 60 92 59 93 60 93 62 93 58 94 57 94 61 94 61 95 57 95 63 95 64 96 65 96 66 96 64 97 67 97 65 97 68 98 66 98 69 98 68 99 64 99 66 99 70 100 68 100 71 100 71 101 68 101 69 101 67 102 70 102 65 102 65 103 70 103 71 103 67 104 64 104 68 104 67 105 68 105 70 105 66 106 65 106 69 106 69 107 65 107 71 107 72 108 73 108 74 108 72 109 75 109 73 109 76 110 74 110 77 110 76 111 72 111 74 111 78 112 76 112 79 112 79 113 76 113 77 113 75 114 78 114 73 114 73 115 78 115 79 115 75 116 72 116 76 116 75 117 76 117 78 117 74 118 73 118 77 118 77 119 73 119 79 119 80 120 81 120 82 120 80 121 83 121 81 121 80 122 82 122 84 122 85 123 80 123 84 123 86 124 85 124 87 124 87 125 85 125 84 125 83 126 86 126 81 126 81 127 86 127 87 127 86 128 80 128 85 128 83 129 80 129 86 129 82 130 81 130 84 130 84 131 81 131 87 131 88 132 89 132 90 132 88 133 91 133 89 133 92 134 90 134 93 134 92 135 88 135 90 135 94 136 92 136 95 136 95 137 92 137 93 137 91 138 94 138 89 138 89 139 94 139 95 139 91 140 88 140 92 140 91 141 92 141 94 141 90 142 89 142 93 142 93 143 89 143 95 143 96 144 97 144 98 144 96 145 99 145 97 145 100 146 98 146 101 146 100 147 96 147 98 147 102 148 100 148 103 148 103 149 100 149 101 149 99 150 102 150 97 150 97 151 102 151 103 151 99 152 96 152 100 152 99 153 100 153 102 153 98 154 97 154 101 154 101 155 97 155 103 155 104 156 105 156 106 156 104 157 107 157 105 157 108 158 106 158 109 158 108 159 104 159 106 159 110 160 108 160 111 160 111 161 108 161 109 161 107 162 110 162 105 162 105 163 110 163 111 163 107 164 104 164 108 164 107 165 108 165 110 165 106 166 105 166 109 166 109 167 105 167 111 167 112 168 113 168 114 168 112 169 115 169 113 169 116 170 114 170 117 170 116 171 112 171 114 171 118 172 116 172 119 172 119 173 116 173 117 173 115 174 118 174 113 174 113 175 118 175 119 175 115 176 112 176 116 176 115 177 116 177 118 177 114 178 113 178 117 178 117 179 113 179 119 179</p>
        </triangles>
      </mesh>
    </geometry>
    <geometry id="geometry1" name="wall_Outer">
      <mesh>
        <source id="cubeverts-array1">
          <float_array count="438" id="cubeverts-array1-array">-18.83407 0 -11.70904 -18.63407 0 -11.50904 -18.63407 0 -8.552677 -18.63407 0 -8.492677 18.56593 0 11.49972 18.76593 0 11.69972 -18.83407 0 11.69972 -18.63407 0 11.49972 -3.034074 0 -11.70904 -3.034074 0 -11.50904 2.822155 0 -8.502698 2.822182 0 -8.442698 2.762155 0 -8.56267 2.882155 0 -8.502698 12.55215 0 1.107302 12.67215 0 3.097302 12.55215 0 3.217302 12.67215 0 1.107302 2.882155 0 -8.747698 2.762155 0 -8.747698 5.252154 0 -8.747698 5.372154 0 -8.552698 5.252154 0 -8.432698 5.372154 0 -8.747698 12.67215 0 -1.782698 12.67215 0 0.207302 12.55215 0 0.207302 12.55215 0 -1.902698 18.56593 0 3.217302 18.50593 0 3.097302 7.862154 0 -8.432698 7.862154 0 -7.542698 6.412154 0 -7.542698 6.412154 0 -8.432698 16.05215 0 -3.342698 16.17215 0 -2.852698 16.05215 0 -2.732698 16.17215 0 -3.342698 18.56593 0 -1.902698 18.50593 0 -1.782698 16.17215 0 -4.732698 16.17215 0 -4.242698 16.05215 0 -4.242698 16.05215 0 -4.852698 14.55215 0 -6.482698 14.67215 0 -5.552698 14.55215 0 -5.432698 14.67215 0 -6.482698 14.67215 0 -8.432698 14.67215 0 -7.382698 14.55215 0 -7.382698 14.55215 0 -8.432698 18.56593 0 -4.852698 18.50593 0 -2.852698 18.50593 0 -4.732698 18.56593 0 -2.732698 18.56593 0 -8.552698 18.56593 0 -8.432698 18.76593 0 -11.70904 18.56593 0 -11.50904 18.56593 0 -5.432698 18.56593 0 -5.552698 -0.5340739 0 -11.50904 -0.5340739 0 -11.70904 -18.63404 0 -8.432677 -0.5340739 3 -11.70904 18.76593 6 -11.70904 -3.034074 3 -11.70904 -18.83407 6 -11.70904 18.56593 6 -11.50904 -0.5340739 3 -11.50904 -3.034074 3 -11.50904 -18.63407 6 -11.50904 14.67215 2.1 -6.482698 14.67215 2.1 -7.382698 14.67215 6 -5.552698 14.67215 6 -8.432698 14.55215 2.1 -6.482698 14.55215 2.1 -7.382698 14.55215 6 -5.432698 14.55215 6 -8.432698 16.05215 2.1 -3.342698 16.05215 2.1 -4.242698 16.05215 6 -2.732698 16.05215 6 -4.852698 16.17215 2.1 -3.342698 16.17215 2.1 -4.242698 16.17215 6 -2.852698 16.17215 6 -4.732698 12.55215 2.1 1.107302 12.55215 2.1 0.207302 12.55215 6 3.217302 12.55215 6 -1.902698 12.67215 2.1 1.107302 12.67215 2.1 0.207302 12.67215 6 3.097302 12.67215 6 -1.782698 5.372154 0 -11.50328 5.372154 3 -11.2477 5.372154 0 -11.2477 5.372154 3 -8.747698 5.372154 6 -8.552698 5.372154 6 -11.50328 5.252154 6 -11.50328 5.252154 0 -11.50328 5.252154 3 -11.2477 5.252154 0 -11.2477 5.252154 3 -8.747698 5.252154 6 -8.432698 18.76593 6 11.69972 18.56593 6 3.217302 18.56593 6 11.49972 18.50593 6 -1.782698 18.50593 6 3.097302 18.56593 6 -1.902698 18.50593 6 -2.852698 18.56593 6 -4.852698 18.50593 6 -4.732698 18.56593 6 -2.732698 18.56593 6 -8.552698 18.56593 6 -8.432698 2.882155 6 -8.502698 2.762155 6 -8.56267 2.822155 6 -8.502698 2.822182 6 -8.442698 -18.83407 6 11.69972 -18.63407 6 11.49972 2.882155 6 -11.50322 2.762155 6 -11.50322 -18.63404 6 -8.432677 -18.63407 6 -8.492677 -18.63407 6 -8.552677 18.56593 6 -5.432698 18.56593 6 -5.552698 7.862154 1.8 -8.432698 6.412154 1.8 -8.432698 2.762155 3 -8.747698 2.762155 0 -11.2477 2.762155 3 -11.2477 2.762155 0 -11.50322 2.882155 3 -8.747698 2.882155 3 -11.2477 2.882155 0 -11.2477 2.882155 0 -11.50322 7.862154 1.8 -7.542698 6.412154 1.8 -7.542698</float_array>
          <technique_common>
            <accessor count="146" source="#cubeverts-array1-array" stride="3">
              <param type="float" name="X"/>
              <param type="float" name="Y"/>
              <param type="float" name="Z"/>
            </accessor>
          </technique_common>
        </source>
        <source id="cubenormals-array1">
          <float_array count="912" id="cubenormals-array1-array">0 -1 0 0 -1 0 0 -1 0 0 -1 0 0 -1 0 0 -1 0 -0 -1 0 -0 -1 0 0 -1 0 0 -1 0 0 -1 0 0 -1 0 0 -1 0 0 -1 0 0 -1 0 0 -1 0 0 -1 0 -0 -1 0 0 -1 0 0 -1 0 0 -1 0 0 -1 0 0 -1 0 0 -1 0 0 -1 0 0 -1 0 -0 -1 0 0 -1 0 0 -1 0 0 -1 0 0 -1 0 0 -1 0 0 -1 0 0 -1 0 0 -1 0 0 -1 0 -0 -1 0 0 -1 0 0 -1 0 -0 -1 0 0 -1 0 0 -1 0 0 -1 0 -0 -1 0 0 -1 -0 -0 -1 0 0 -1 -0 0 -1 -0 0 -1 -0 0 -1 -0 -0 -1 0 0 -1 -0 0 -1 0 0 -1 0 0 -1 0 0 -1 0 0 -1 0 0 -1 0 0 -1 0 0 -1 0 0 -1 0 0 -1 0 0 -1 0 0 0 -1 0 0 -1 0 0 -1 0 0 -1 0 0 -1 0 0 -1 0 0 1 0 0 1 0 0 1 0 0 1 0 0 1 0 0 1 1 0 0 1 0 0 1 0 0 1 0 0 1 0 0 1 0 -0 -1 0 0 -1 0 0 -1 0 0 -1 0 0 -1 0 -0 -1 0 -0 -1 0 0 -1 0 0 -1 0 0 -1 0 -0 -1 0 0 -1 0 0 1 0 0 1 0 0 1 0 0 1 0 -0 1 0 0 1 0 0 -1 0 0 -1 -0 0 -1 0 0 -1 0 0 -1 0 -0 -1 0 -0 1 0 0 1 0 0 1 0 0 1 0 0 1 0 -0 1 0 0 1 0 0 1 0 0 1 0 0 1 0 -0 1 0 0 1 0 0 0 0 -1 0 0 -1 -1 -0 0 -1 0 0 -1 0 0 -1 0 -0 -1 0 0 -1 0 0 0 1 0 0 1 0 0 1 0 0 1 -0 0 1 -0 0 1 0 0 1 0 0 1 -0 0 1 0 0 1 -0 0 1 0 0 1 0 0 1 0 0 1 -0 0 1 -0 0 1 0 0 1 0 0 1 -0 0 1 -0 0 1 -0 0 1 0 0 1 0 0 1 0 0 1 -0 0 1 0 0 1 0 0 1 -0 0 1 -0 0 1 0 0 1 0 0 1 0 0 1 0 0 1 0 0 1 0 0 1 0 0 1 0 0 1 0 0 1 0 -0 1 0 0 1 0 0 1 0 0 1 0 0 1 0 0 1 0 -0 1 0 0 1 0 0 1 0 0 1 0 -0 1 0 0 1 0 0 1 0 0 -1 0 0 -1 0 1 0 -0 1 0 0 -1 -0 -0 -1 0 0 -1 -0 -0 -1 0 0 -1 -0 -0 -1 0 0 -1 -0 -0 -1 0 0 0 0 1 0 0 1 1 0 0 1 0 -0 -1 -0 -0 -1 0 0 0 0 -1 0 0 -1 -1 -0 -0 -1 0 0 1 0 -0 1 0 0 0 0 1 0 0 1 0 0 -1 0 0 -1 0 -0 1 0 0 1 0 0 -1 0 0 -1 0 0 1 0 0 1 0 -0 1 0 0 1 0 0 1 0 0 1 0 0 -1 0 0 -1 0 0 1 0 0 1 -1 0 0 -1 0 -0 0 0 1 0 0 1 0 0 -1 0 0 -1 0 0 -1 0 0 -1 0 0 1 0 0 1 -1 -0 -0 -1 0 0 0 0 1 0 0 1 0 0 -1 0 0 -1 -0.9999999 0 0.0004882812 -0.9999999 0 0.0004882812 0.0004670664 0 0.9999999 0.0004670664 0 0.9999999 0.9999999 0 -0.0004638672 0.9999999 0 -0.0004638672 -0.0004670526 0 -0.9999999 -0.0004670526 -0 -0.9999999 -1 0 0 -1 0 0 -1 0 0 -1 0 -0 -1 0 0 -1 0 0 0 0 1 0 0 1 1 0 0 1 0 0 1 0 0 1 0 -0 1 0 0 1 0 0 0 0 -1 0 0 -1 0 -1 0 0 -1 0 0 -0 -1 0 0 -1 0 0 1 0 -0 1 0 -1 0 0 -1 0 -0 0 -1 0 -0 -1 0 0 1 0 -0 1 0 -1 0 0 -1 0 0 -0 -1 0 0 -1 0 -0 1 0 0 1 0 -1 0 0 -1 0 1 0 -0 1 0 0 -1 -0 -0 -1 0 0 0 1 0 0 1 0 0 0 1 0 0 1 1 0 -0 1 0 0 0 -1 0 0 -1 0 -1 -0 -0 -1 0 0 0 -0 -1 0 0 -1 0 -0 1 0 0 1 0 -1 0 0 -1 0 0 -1 0 0 -1 0 0 -0 -1 0 0 -1 0 -0 1 0 0 1</float_array>
          <technique_common>
            <accessor count="304" source="#cubenormals-array1-array" stride="3">
              <param type="float" name="X"/>
              <param type="float" name="Y"/>
              <param type="float" name="Z"/>
            </accessor>
          </technique_common>
        </source>
        <vertices id="cubeverts-array1-vertices">
          <input semantic="POSITION" source="#cubeverts-array1"/>
        </vertices>
        <triangles count="304" material="ref_Part__Feature016">
          <input offset="0" semantic="VERTEX" source="#cubeverts-array1-vertices"/>
          <input offset="1" semantic="NORMAL" source="#cubenormals-array1"/>
          <p>0 0 1 0 2 0 0 1 2 1 3 1 4 2 5 2 6 2 4 3 6 3 7 3 8 4 9 4 1 4 8 5 1 5 0 5 10 6 11 6 12 6 13 7 10 7 12 7 14 8 15 8 16 8 17 9 15 9 14 9 18 10 12 10 19 10 18 11 13 11 12 11 20 12 21 12 22 12 23 13 21 13 20 13 24 14 25 14 26 14 27 15 24 15 26 15 28 16 5 16 4 16 28 17 16 17 15 17 29 18 28 18 15 18 30 19 31 19 32 19 30 20 32 20 33 20 34 21 35 21 36 21 37 22 35 22 34 22 38 23 29 23 39 23 38 24 28 24 29 24 40 25 41 25 42 25 40 26 42 26 43 26 44 27 45 27 46 27 47 28 45 28 44 28 48 29 49 29 50 29 48 30 50 30 51 30 52 31 53 31 54 31 52 32 55 32 53 32 56 33 57 33 48 33 58 34 56 34 59 34 3 35 7 35 6 35 3 36 6 36 0 36 27 37 38 37 24 37 24 38 38 38 39 38 55 39 36 39 35 39 55 40 35 40 53 40 43 41 52 41 54 41 43 42 54 42 40 42 60 43 46 43 45 43 60 44 45 44 61 44 33 45 22 45 21 45 33 46 21 46 30 46 30 47 21 47 51 47 51 48 21 48 48 48 48 49 21 49 56 49 59 50 62 50 63 50 59 51 63 51 58 51 58 52 5 52 28 52 58 53 28 53 38 53 58 54 38 54 55 54 58 55 55 55 52 55 58 56 52 56 60 56 58 57 60 57 61 57 58 58 61 58 57 58 58 59 57 59 56 59 2 60 12 60 3 60 3 61 12 61 64 61 64 62 12 62 11 62 65 63 66 63 58 63 65 64 58 64 63 64 0 65 67 65 8 65 68 66 67 66 0 66 68 67 66 67 65 67 68 68 65 68 67 68 69 69 70 69 59 69 59 70 70 70 62 70 71 71 1 71 9 71 71 72 72 72 1 72 69 73 72 73 70 73 70 74 72 74 71 74 73 75 45 75 47 75 74 76 49 76 48 76 75 77 73 77 74 77 75 78 45 78 73 78 76 79 74 79 48 79 76 80 75 80 74 80 46 81 77 81 44 81 50 82 78 82 51 82 46 83 79 83 77 83 77 84 80 84 78 84 78 85 80 85 51 85 79 86 80 86 77 86 36 87 81 87 34 87 42 88 82 88 43 88 81 89 83 89 82 89 83 90 84 90 82 90 84 91 43 91 82 91 36 92 83 92 81 92 85 93 35 93 37 93 86 94 41 94 40 94 87 95 85 95 86 95 88 96 87 96 86 96 40 97 88 97 86 97 87 98 35 98 85 98 16 99 89 99 14 99 90 100 27 100 26 100 89 101 91 101 90 101 16 102 91 102 89 102 91 103 92 103 90 103 90 104 92 104 27 104 93 105 15 105 17 105 94 106 25 106 24 106 95 107 15 107 93 107 96 108 93 108 94 108 96 109 95 109 93 109 96 110 94 110 24 110 97 111 98 111 99 111 23 112 100 112 21 112 98 113 101 113 100 113 102 114 101 114 98 114 101 115 21 115 100 115 97 116 102 116 98 116 103 117 97 117 104 117 103 118 102 118 97 118 105 119 104 119 106 119 107 120 20 120 22 120 103 121 105 121 107 121 108 122 103 122 107 122 22 123 108 123 107 123 103 124 104 124 105 124 109 125 110 125 111 125 110 126 112 126 113 126 110 127 114 127 112 127 113 128 95 128 110 128 95 129 91 129 110 129 115 130 116 130 117 130 118 131 116 131 115 131 88 132 84 132 87 132 87 133 84 133 83 133 96 134 92 134 95 134 95 135 92 135 91 135 119 136 66 136 69 136 120 137 66 137 119 137 119 138 76 138 120 138 76 139 80 139 75 139 75 140 80 140 79 140 121 141 122 141 123 141 123 142 122 142 124 142 102 143 103 143 101 143 111 144 125 144 109 144 111 145 126 145 125 145 121 146 127 146 122 146 127 147 128 147 122 147 122 148 129 148 124 148 122 149 130 149 129 149 122 150 131 150 130 150 72 151 68 151 131 151 131 152 68 152 130 152 109 153 66 153 110 153 110 154 66 154 114 154 114 155 66 155 118 155 118 156 66 156 116 156 116 157 66 157 132 157 132 158 66 158 133 158 133 159 66 159 120 159 119 160 101 160 76 160 76 161 101 161 80 161 80 162 101 162 108 162 72 163 69 163 68 163 68 164 69 164 66 164 126 165 130 165 125 165 125 166 130 166 68 166 114 167 92 167 96 167 114 168 96 168 112 168 83 169 118 169 87 169 87 170 118 170 115 170 116 171 84 171 117 171 117 172 84 172 88 172 79 173 132 173 75 173 75 174 132 174 133 174 103 175 108 175 101 175 104 176 99 176 106 176 104 177 97 177 99 177 72 178 131 178 2 178 72 179 2 179 1 179 111 180 110 180 4 180 4 181 110 181 28 181 114 182 118 182 38 182 38 183 118 183 55 183 133 184 120 184 61 184 61 185 120 185 57 185 116 186 132 186 52 186 52 187 132 187 60 187 109 188 6 188 5 188 109 189 125 189 6 189 66 190 5 190 58 190 66 191 109 191 5 191 125 192 68 192 6 192 6 193 68 193 0 193 126 194 4 194 7 194 126 195 111 195 4 195 119 196 69 196 56 196 56 197 69 197 59 197 130 198 126 198 7 198 130 199 7 199 3 199 120 200 76 200 57 200 57 201 76 201 48 201 21 202 119 202 56 202 101 203 119 203 21 203 60 204 132 204 46 204 132 205 79 205 46 205 75 206 133 206 61 206 75 207 61 207 45 207 80 208 134 208 51 208 51 209 134 209 30 209 33 210 135 210 22 210 134 211 108 211 135 211 80 212 108 212 134 212 135 213 108 213 22 213 84 214 116 214 52 214 84 215 52 215 43 215 118 216 83 216 55 216 55 217 83 217 36 217 53 218 115 218 54 218 115 219 117 219 54 219 117 220 88 220 54 220 54 221 88 221 40 221 87 222 53 222 35 222 87 223 115 223 53 223 27 224 114 224 38 224 92 225 114 225 27 225 110 226 16 226 28 226 110 227 91 227 16 227 113 228 112 228 29 228 29 229 112 229 39 229 112 230 96 230 39 230 39 231 96 231 24 231 95 232 29 232 15 232 95 233 113 233 29 233 129 234 130 234 3 234 129 235 3 235 64 235 124 236 64 236 11 236 124 237 129 237 64 237 123 238 124 238 11 238 123 239 11 239 10 239 2 240 122 240 12 240 131 241 122 241 2 241 12 242 136 242 19 242 137 243 138 243 139 243 136 244 122 244 138 244 122 245 128 245 138 245 128 246 139 246 138 246 12 247 122 247 136 247 121 248 123 248 10 248 121 249 10 249 13 249 140 250 13 250 18 250 141 251 142 251 143 251 121 252 140 252 141 252 127 253 121 253 141 253 143 254 127 254 141 254 121 255 13 255 140 255 128 256 143 256 139 256 128 257 127 257 143 257 143 258 142 258 137 258 139 259 143 259 137 259 93 260 17 260 14 260 89 261 93 261 14 261 25 262 90 262 26 262 25 263 94 263 90 263 94 264 93 264 89 264 94 265 89 265 90 265 85 266 34 266 81 266 85 267 37 267 34 267 42 268 86 268 82 268 41 269 86 269 42 269 86 270 81 270 82 270 86 271 85 271 81 271 73 272 47 272 44 272 77 273 73 273 44 273 49 274 74 274 50 274 74 275 78 275 50 275 74 276 73 276 77 276 74 277 77 277 78 277 134 278 144 278 31 278 134 279 31 279 30 279 145 280 135 280 32 280 32 281 135 281 33 281 144 282 134 282 135 282 144 283 135 283 145 283 144 284 145 284 31 284 31 285 145 285 32 285 67 286 71 286 9 286 67 287 9 287 8 287 65 288 70 288 71 288 65 289 71 289 67 289 70 290 65 290 62 290 62 291 65 291 63 291 140 292 18 292 19 292 136 293 140 293 19 293 142 294 141 294 137 294 141 295 138 295 137 295 141 296 140 296 138 296 138 297 140 297 136 297 98 298 100 298 105 298 105 299 100 299 107 299 100 300 23 300 20 300 107 301 100 301 20 301 99 302 98 302 106 302 98 303 105 303 106 303</p>
        </triangles>
      </mesh>
    </geometry>
    <geometry id="geometry2" name="floor">
      <mesh>
        <source id="cubeverts-array2">
          <float_array count="24" id="cubeverts-array2-array">-18.83407 0 11.69972 -18.83407 0 -11.70904 -18.83407 -0.1 11.69972 -18.83407 -0.1 -11.70904 18.76593 0 -11.70904 18.76593 -0.1 -11.70904 18.76593 0 11.69972 18.76593 -0.1 11.69972</float_array>
          <technique_common>
            <accessor count="8" source="#cubeverts-array2-array" stride="3">
              <param type="float" name="X"/>
              <param type="float" name="Y"/>
              <param type="float" name="Z"/>
            </accessor>
          </technique_common>
        </source>
        <source id="cubenormals-array2">
          <float_array count="36" id="cubenormals-array2-array">-1 -0 -0 -1 0 0 0 0 -1 0 0 -1 1 0 -0 1 0 0 0 0 1 0 0 1 -0 -1 0 0 -1 0 -0 1 0 0 1 0</float_array>
          <technique_common>
            <accessor count="12" source="#cubenormals-array2-array" stride="3">
              <param type="float" name="X"/>
              <param type="float" name="Y"/>
              <param type="float" name="Z"/>
            </accessor>
          </technique_common>
        </source>
        <vertices id="cubeverts-array2-vertices">
          <input semantic="POSITION" source="#cubeverts-array2"/>
        </vertices>
        <triangles count="12" material="ref_Part__Feature018">
          <input offset="0" semantic="VERTEX" source="#cubeverts-array2-vertices"/>
          <input offset="1" semantic="NORMAL" source="#cubenormals-array2"/>
          <p>0 0 1 0 2 0 2 1 1 1 3 1 1 2 4 2 3 2 3 3 4 3 5 3 4 4 6 4 5 4 5 5 6 5 7 5 6 6 0 6 7 6 7 7 0 7 2 7 7 8 2 8 3 8 5 9 7 9 3 9 0 10 6 10 1 10 6 11 4 11 1 11</p>
        </triangles>
      </mesh>
    </geometry>
  </library_geometries>
  <library_materials>
    <material id="mat_Fusion" name="Fusion">
      <instance_effect url="#effect_Fusion"/>
    </material>
    <material id="mat_Part__Feature016" name="Part__Feature016">
      <instance_effect url="#effect_Part__Feature016"/>
    </material>
    <material id="mat_Part__Feature018" name="Part__Feature018">
      <instance_effect url="#effect_Part__Feature018"/>
    </material>
  </library_materials>
  <library_visual_scenes>
    <visual_scene id="scene">
      <node id="node0" name="node0">
        <instance_geometry url="#geometry0">
          <bind_material>
            <technique_common>
              <instance_material symbol="ref_Fusion" target="#mat_Fusion"/>
            </technique_common>
          </bind_material>
        </instance_geometry>
      </node>
      <node id="node1" name="node1">
        <instance_geometry url="#geometry1">
          <bind_material>
            <technique_common>
              <instance_material symbol="ref_Part__Feature016" target="#mat_Part__Feature016"/>
            </technique_common>
          </bind_material>
        </instance_geometry>
      </node>
      <node id="node2" name="node2">
        <instance_geometry url="#geometry2">
          <bind_material>
            <technique_common>
              <instance_material symbol="ref_Part__Feature018" target="#mat_Part__Feature018"/>
            </technique_common>
          </bind_material>
        </instance_geometry>
      </node>
    </visual_scene>
  </library_visual_scenes>
  <scene>
    <instance_visual_scene url="#scene"/>
  </scene>
</COLLADA>
