<COLLADA xmlns="http://www.collada.org/2005/11/COLLADASchema" version="1.4.1">
  <asset>
    <contributor/>
    <created>2026-10-01T22:28:54.952258</created>
    <modified>2026-10-01T22:28:54.952267</modified>
    <unit name="meter" meter="1.0"/>
    <up_axis>Z_UP</up_axis>
  </asset>
  <library_effects>
    <effect id="effect_Lidar__U__shape004" name="effect_Lidar__U__shape004">
      <profile_COMMON>
        <technique sid="common">
          <phong>
            <emission>
              <color>0.0 0.0 0.0 1.0</color>
            </emission>
            <ambient>
              <color>0.0 0.0 0.0 1.0</color>
            </ambient>
            <diffuse>
              <color>0.6784313917160034 0.7098039388656616 0.7411764860153198 1.0</color>
            </diffuse>
            <specular>
              <color>1 1 1 1.0</color>
            </specular>
            <shininess>
              <float>0.0</float>
            </shininess>
            <reflective>
              <color>0.0 0.0 0.0 1.0</color>
            </reflective>
            <reflectivity>
              <float>0.0</float>
            </reflectivity>
            <transparent>
              <color>0.0 0.0 0.0 1.0</color>
            </transparent>
            <transparency>
              <float>1.0</float>
            </transparency>
          </phong>
        </technique>
        <extra>
          <technique profile="GOOGLEEARTH">
            <double_sided>0</double_sided>
          </technique>
        </extra>
      </profile_COMMON>
    </effect>
  </library_effects>
  <library_geometries>
    <geometry id="geometry0" name="Lidar__U__shape004">
      <mesh>
        <source id="cubeverts-array0">
          <float_array count="756" id="cubeverts-array0-array">0.02988001 0.0324596 0.1305 0.0315 0.0325 0.1305 0.0315 0.0325 0.11 0.02988001 0.0324596 0.11 0.02826405 0.0323385 0.1305 0.02826405 0.0323385 0.11 0.02665613 0.032137 0.1305 0.02665613 0.032137 0.11 0.02506025 0.03185561 0.1305 0.02506025 0.03185561 0.11 0.02348038 0.03149501 0.11 0.02348038 0.03149501 0.1305 0.02192046 0.03105612 0.1305 0.02192046 0.03105612 0.11 0.02038435 0.03054001 0.1305 0.02038435 0.03054001 0.11 0.01887587 0.02994798 0.11 0.01887587 0.02994798 0.1305 0.01739878 0.02928149 0.1305 0.01739878 0.02928149 0.11 0.01595675 0.0285422 0.11 0.01595675 0.0285422 0.1305 0.01455336 0.02773195 0.1305 0.01455336 0.02773195 0.11 0.0131921 0.02685276 0.1305 0.0131921 0.02685276 0.11 0.01187636 0.02590681 0.11 0.01187636 0.02590681 0.1305 0.0106094 0.02489644 0.11 0.0106094 0.02489644 0.1305 0.009394386 0.02382419 0.1305 0.009394386 0.02382419 0.11 0.008234327 0.0226927 0.1305 0.008234327 0.0226927 0.11 0.007132111 0.02150479 0.1305 0.007132111 0.02150479 0.11 0.006090477 0.02026342 0.11 0.006090477 0.02026342 0.1305 0.005112015 0.01897167 0.1305 0.005112015 0.01897167 0.11 0.004199158 0.01763275 0.1305 0.004199158 0.01763275 0.11 0.003354174 0.01625 0.1305 0.003354174 0.01625 0.11 0.002579166 0.01482685 0.1305 0.002579166 0.01482685 0.11 0.00187606 0.01336683 0.11 0.00187606 0.01336683 0.1305 0.001246603 0.01187358 0.1305 0.001246603 0.01187358 0.11 0.0006923612 0.01035082 0.1305 0.0006923612 0.01035082 0.11 0.000214712 0.008802315 0.1305 0.000214712 0.008802315 0.11 -0.0001851572 0.00723193 0.1305 -0.0001851572 0.00723193 0.11 -0.000506252 0.005643566 0.1305 -0.000506252 0.005643566 0.11 -0.0007477742 0.004041171 0.11 -0.0007477742 0.004041171 0.1305 -0.0009091234 0.002428728 0.1305 -0.0009091234 0.002428728 0.11 -0.0009898984 0.0008102475 0.1305 -0.0009898984 0.0008102475 0.11 -0.0009898984 -0.0008102475 0.1305 -0.0009898984 -0.0008102475 0.11 -0.0009091234 -0.002428728 0.11 -0.0009091234 -0.002428728 0.1305 -0.0007477742 -0.004041171 0.1305 -0.0007477742 -0.004041171 0.11 -0.000506252 -0.005643566 0.1305 -0.000506252 -0.005643566 0.11 -0.0001851572 -0.00723193 0.1305 -0.0001851572 -0.00723193 0.11 0.000214712 -0.008802315 0.1305 0.000214712 -0.008802315 0.11 0.0006923612 -0.01035082 0.1305 0.0006923612 -0.01035082 0.11 0.001246603 -0.01187358 0.1305 0.001246603 -0.01187358 0.11 0.00187606 -0.01336683 0.1305 0.00187606 -0.01336683 0.11 0.002579166 -0.01482685 0.1305 0.002579166 -0.01482685 0.11 0.003354174 -0.01625 0.1305 0.003354174 -0.01625 0.11 0.004199158 -0.01763275 0.1305 0.004199158 -0.01763275 0.11 0.005112015 -0.01897167 0.11 0.005112015 -0.01897167 0.1305 0.006090477 -0.02026342 0.1305 0.006090477 -0.02026342 0.11 0.007132111 -0.02150479 0.1305 0.007132111 -0.02150479 0.11 0.008234327 -0.0226927 0.1305 0.008234327 -0.0226927 0.11 0.009394386 -0.02382419 0.1305 0.009394386 -0.02382419 0.11 0.0106094 -0.02489644 0.1305 0.0106094 -0.02489644 0.11 0.01187636 -0.02590681 0.1305 0.01187636 -0.02590681 0.11 0.0131921 -0.02685276 0.11 0.0131921 -0.02685276 0.1305 0.01455336 -0.02773195 0.1305 0.01455336 -0.02773195 0.11 0.01595675 -0.0285422 0.1305 0.01595675 -0.0285422 0.11 0.01739878 -0.02928149 0.1305 0.01739878 -0.02928149 0.11 0.01887587 -0.02994798 0.1305 0.01887587 -0.02994798 0.11 0.02038435 -0.03054001 0.1305 0.02038435 -0.03054001 0.11 0.02192046 -0.03105612 0.1305 0.02192046 -0.03105612 0.11 0.02348038 -0.03149501 0.11 0.02348038 -0.03149501 0.1305 0.02506025 -0.03185561 0.1305 0.02506025 -0.03185561 0.11 0.02665613 -0.032137 0.1305 0.02665613 -0.032137 0.11 0.02826405 -0.0323385 0.1305 0.02826405 -0.0323385 0.11 0.02988001 -0.0324596 0.1305 0.02988001 -0.0324596 0.11 0.0315 -0.0325 0.11 0.0315 -0.0325 0.1305 0.03311999 -0.0324596 0.1305 0.03311999 -0.0324596 0.11 0.03473595 -0.0323385 0.1305 0.03473595 -0.0323385 0.11 0.03634387 -0.032137 0.1305 0.03634387 -0.032137 0.11 0.03793975 -0.03185561 0.1305 0.03793975 -0.03185561 0.11 0.03951962 -0.03149501 0.1305 0.03951962 -0.03149501 0.11 0.04107954 -0.03105612 0.1305 0.04107954 -0.03105612 0.11 0.04261565 -0.03054001 0.1305 0.04261565 -0.03054001 0.11 0.04412413 -0.02994798 0.1305 0.04412413 -0.02994798 0.11 0.04560122 -0.02928149 0.1305 0.04560122 -0.02928149 0.11 0.04704325 -0.0285422 0.1305 0.04704325 -0.0285422 0.11 0.04844664 -0.02773195 0.1305 0.04844664 -0.02773195 0.11 0.0498079 -0.02685276 0.1305 0.0498079 -0.02685276 0.11 0.05112364 -0.02590681 0.1305 0.05112364 -0.02590681 0.11 0.0523906 -0.02489644 0.1305 0.0523906 -0.02489644 0.11 0.05360561 -0.02382419 0.1305 0.05360561 -0.02382419 0.11 0.05476567 -0.0226927 0.1305 0.05476567 -0.0226927 0.11 0.05586789 -0.02150479 0.1305 0.05586789 -0.02150479 0.11 0.05690952 -0.02026342 0.1305 0.05690952 -0.02026342 0.11 0.05788799 -0.01897167 0.1305 0.05788799 -0.01897167 0.11 0.05880084 -0.01763275 0.11 0.05880084 -0.01763275 0.1305 0.05964582 -0.01625 0.1305 0.05964582 -0.01625 0.11 0.06042083 -0.01482685 0.11 0.06042083 -0.01482685 0.1305 0.06112394 -0.01336683 0.1305 0.06112394 -0.01336683 0.11 0.0617534 -0.01187358 0.1305 0.0617534 -0.01187358 0.11 0.06230764 -0.01035082 0.11 0.06230764 -0.01035082 0.1305 0.06278529 -0.008802315 0.1305 0.06278529 -0.008802315 0.11 0.06318516 -0.00723193 0.1305 0.06318516 -0.00723193 0.11 0.06350625 -0.005643566 0.1305 0.06350625 -0.005643566 0.11 0.06374778 -0.004041171 0.1305 0.06374778 -0.004041171 0.11 0.06390912 -0.002428728 0.11 0.06390912 -0.002428728 0.1305 0.0639899 -0.0008102475 0.1305 0.0639899 -0.0008102475 0.11 0.0639899 0.0008102475 0.1305 0.0639899 0.0008102475 0.11 0.06390912 0.002428728 0.1305 0.06390912 0.002428728 0.11 0.06374778 0.004041171 0.1305 0.06374778 0.004041171 0.11 0.06350625 0.005643566 0.1305 0.06350625 0.005643566 0.11 0.06318516 0.00723193 0.1305 0.06318516 0.00723193 0.11 0.06278529 0.008802315 0.11 0.06278529 0.008802315 0.1305 0.06230764 0.01035082 0.1305 0.06230764 0.01035082 0.11 0.0617534 0.01187358 0.1305 0.0617534 0.01187358 0.11 0.06112394 0.01336683 0.1305 0.06112394 0.01336683 0.11 0.06042083 0.01482685 0.1305 0.06042083 0.01482685 0.11 0.05964582 0.01625 0.1305 0.05964582 0.01625 0.11 0.05880084 0.01763275 0.1305 0.05880084 0.01763275 0.11 0.05788799 0.01897167 0.11 0.05788799 0.01897167 0.1305 0.05690952 0.02026342 0.11 0.05690952 0.02026342 0.1305 0.05586789 0.02150479 0.1305 0.05586789 0.02150479 0.11 0.05476567 0.0226927 0.1305 0.05476567 0.0226927 0.11 0.05360561 0.02382419 0.1305 0.05360561 0.02382419 0.11 0.0523906 0.02489644 0.1305 0.0523906 0.02489644 0.11 0.05112364 0.02590681 0.11 0.05112364 0.02590681 0.1305 0.0498079 0.02685276 0.1305 0.0498079 0.02685276 0.11 0.04844664 0.02773195 0.11 0.04844664 0.02773195 0.1305 0.04704325 0.0285422 0.1305 0.04704325 0.0285422 0.11 0.04560122 0.02928149 0.1305 0.04560122 0.02928149 0.11 0.04412413 0.02994798 0.11 0.04412413 0.02994798 0.1305 0.04261565 0.03054001 0.1305 0.04261565 0.03054001 0.11 0.04107954 0.03105612 0.1305 0.04107954 0.03105612 0.11 0.03951962 0.03149501 0.1305 0.03951962 0.03149501 0.11 0.03793975 0.03185561 0.11 0.03793975 0.03185561 0.1305 0.03634387 0.032137 0.1305 0.03634387 0.032137 0.11 0.03473595 0.0323385 0.1305 0.03473595 0.0323385 0.11 0.03311999 0.0324596 0.1305 0.03311999 0.0324596 0.11</float_array>
          <technique_common>
            <accessor count="252" source="#cubeverts-array0-array" stride="3">
              <param type="float" name="X"/>
              <param type="float" name="Y"/>
              <param type="float" name="Z"/>
            </accessor>
          </technique_common>
        </source>
        <source id="cubenormals-array0">
          <float_array count="1500" id="cubenormals-array0-array">-0.02493155 0.9996892 0 -0.02493155 0.9996892 0 -0.07472879 0.9972039 0 -0.07472879 0.9972039 0 -0.1243446 0.9922391 0 -0.1243446 0.9922391 0 -0.1736477 0.9848078 0 -0.2225207 0.974928 0 -0.1736477 0.9848078 0 -0.2225207 0.974928 0 -0.2708406 0.9626242 0 -0.2708406 0.9626242 0 -0.3184868 0.9479274 0 -0.365341 0.9308737 0 -0.3184868 0.9479274 0 -0.365341 0.9308737 0 -0.411287 0.9115059 0 -0.4562103 0.889872 0 -0.411287 0.9115059 0 -0.4562103 0.889872 0 -0.4999999 0.8660254 0 -0.4999999 0.8660254 0 -0.5425464 0.8400258 0 -0.5425464 0.8400258 0 -0.5837438 0.8119379 0 -0.5837438 0.8119379 0 -0.6234899 0.7818314 0 -0.6234899 0.7818314 0 -0.6616857 0.7497813 0 -0.6616857 0.7497813 0 -0.6982365 0.715867 0 -0.6982365 0.715867 0 -0.7330524 0.6801723 0 -0.7330524 0.6801723 0 -0.7660444 0.6427876 0 -0.7660444 0.6427876 0 -0.7971322 0.6038048 0 -0.7971322 0.6038048 0 -0.826239 0.5633196 0 -0.826239 0.5633196 0 -0.8532907 0.5214354 0 -0.8532907 0.5214354 0 -0.8782216 0.478254 0 -0.8782216 0.478254 0 -0.9009688 0.4338838 0 -0.9009688 0.4338838 0 -0.9214763 0.3884347 0 -0.9214763 0.3884347 0 -0.9396926 0.3420201 0 -0.9396926 0.3420201 0 -0.9555728 0.2947551 0 -0.9555728 0.2947551 0 -0.9690772 0.2467574 0 -0.9690772 0.2467574 0 -0.9801724 0.1981461 0 -0.9888309 0.1490423 0 -0.9801724 0.1981461 0 -0.9888309 0.1490423 0 -0.9950308 0.09956783 0 -0.9950308 0.09956783 0 -0.9987569 0.04984589 0 -0.9987569 0.04984589 0 -1 0 0 -0.9987569 -0.04984589 -0 -1 0 0 -0.9987569 -0.04984589 -0 -0.9950308 -0.09956783 -0 -0.9950308 -0.09956783 0 -0.9888309 -0.1490423 -0 -0.9888309 -0.1490423 0 -0.9801724 -0.1981461 -0 -0.9801724 -0.1981461 0 -0.9690772 -0.2467574 0 -0.9690772 -0.2467574 -0 -0.9555728 -0.2947551 0 -0.9555728 -0.2947551 -0 -0.9396926 -0.3420201 0 -0.9396926 -0.3420201 -0 -0.9214763 -0.3884347 0 -0.9214763 -0.3884347 -0 -0.9009688 -0.4338838 0 -0.9009688 -0.4338838 -0 -0.8782216 -0.478254 0 -0.8782216 -0.478254 -0 -0.8532907 -0.5214354 0 -0.8532907 -0.5214354 -0 -0.826239 -0.5633196 -0 -0.826239 -0.5633196 -0 -0.7971322 -0.6038048 0 -0.7971322 -0.6038048 -0 -0.7660444 -0.6427876 0 -0.7660444 -0.6427876 -0 -0.7330524 -0.6801723 0 -0.7330524 -0.6801723 -0 -0.6982365 -0.715867 0 -0.6982365 -0.715867 -0 -0.6616857 -0.7497813 0 -0.6616857 -0.7497813 -0 -0.6234899 -0.7818314 0 -0.6234899 -0.7818314 -0 -0.5837438 -0.8119379 -0 -0.5837438 -0.8119379 -0 -0.5425464 -0.8400258 0 -0.5425464 -0.8400258 -0 -0.4999999 -0.8660254 0 -0.4999999 -0.8660254 -0 -0.4562103 -0.889872 0 -0.4562103 -0.889872 -0 -0.411287 -0.9115059 0 -0.411287 -0.9115059 -0 -0.365341 -0.9308737 0 -0.365341 -0.9308737 -0 -0.3184868 -0.9479274 0 -0.3184868 -0.9479274 -0 -0.2708406 -0.9626242 -0 -0.2708406 -0.9626242 -0 -0.2225207 -0.974928 -0 -0.2225207 -0.974928 0 -0.1736477 -0.9848078 -0 -0.1736477 -0.9848078 0 -0.1243446 -0.9922391 -0 -0.1243446 -0.9922391 0 -0.07472879 -0.9972039 0 -0.07472879 -0.9972039 -0 -0.02493155 -0.9996892 -0 -0.02493155 -0.9996892 -0 0.02493155 -0.9996892 0 0.02493155 -0.9996892 0 0.07472879 -0.9972039 0 0.07472879 -0.9972039 0 0.1243447 -0.9922391 0 0.1243447 -0.9922391 0 0.1736473 -0.9848079 0 0.1736473 -0.9848079 0 0.222521 -0.9749279 0 0.222521 -0.9749279 0 0.2708406 -0.9626242 0 0.2708406 -0.9626242 0 0.3184868 -0.9479274 0 0.3184868 -0.9479274 0 0.365341 -0.9308737 0 0.365341 -0.9308737 0 0.4112866 -0.911506 0 0.4112866 -0.911506 0 0.4562106 -0.8898719 0 0.4562106 -0.8898719 0 0.5000002 -0.8660253 0 0.5000002 -0.8660253 0 0.5425462 -0.840026 0 0.5425462 -0.840026 0 0.5837443 -0.8119375 0 0.5837443 -0.8119375 0 0.6234893 -0.7818319 0 0.6234893 -0.7818319 0 0.661686 -0.7497811 0 0.661686 -0.7497811 0 0.6982372 -0.7158666 0 0.6982372 -0.7158666 0 0.7330516 -0.680173 0 0.7330516 -0.680173 0 0.7660446 -0.6427874 0 0.7660446 -0.6427874 0 0.7971322 -0.6038048 0 0.826239 -0.5633196 0 0.7971322 -0.6038048 0 0.826239 -0.5633196 0 0.8532912 -0.5214348 0 0.8782213 -0.4782544 0 0.8532912 -0.5214348 0 0.8782213 -0.4782544 0 0.900969 -0.4338835 0 0.900969 -0.4338835 0 0.9214765 -0.3884341 0 0.939692 -0.3420219 0 0.9214765 -0.3884341 0 0.939692 -0.3420219 0 0.9555728 -0.2947554 0 0.9555728 -0.2947554 0 0.9690774 -0.2467568 0 0.9690774 -0.2467568 0 0.9801725 -0.198146 0 0.9801725 -0.198146 0 0.9888306 -0.1490432 0 0.9950309 -0.09956615 0 0.9888306 -0.1490432 0 0.9950309 -0.09956615 0 0.9987569 -0.04984663 0 0.9987569 -0.04984663 0 1 0 0 1 0 0 0.9987569 0.04984663 0 0.9987569 0.04984663 0 0.9950309 0.09956615 0 0.9950309 0.09956615 0 0.9888306 0.1490432 0 0.9888306 0.1490432 0 0.9801725 0.198146 0 0.9690774 0.2467568 0 0.9801725 0.198146 0 0.9690774 0.2467568 0 0.9555728 0.2947554 0 0.9555728 0.2947554 0 0.939692 0.3420219 0 0.939692 0.3420219 0 0.9214765 0.3884341 0 0.9214765 0.3884341 0 0.900969 0.4338835 0 0.900969 0.4338835 0 0.8782213 0.4782544 0 0.8782213 0.4782544 0 0.8532912 0.5214348 0 0.826239 0.5633196 0 0.8532912 0.5214348 0 0.7971322 0.6038048 0 0.826239 0.5633196 0 0.7971322 0.6038048 0 0.7660446 0.6427874 0 0.7660446 0.6427874 0 0.7330516 0.680173 0 0.7330516 0.680173 0 0.6982372 0.7158666 0 0.6982372 0.7158666 0 0.661686 0.7497811 0 0.6234893 0.7818319 0 0.661686 0.7497811 0 0.6234893 0.7818319 0 0.5837443 0.8119375 0 0.5837443 0.8119375 0 0.5425462 0.840026 0 0.5425462 0.840026 0 0.5000002 0.8660253 0 0.5000002 0.8660253 0 0.4562106 0.8898719 0 0.4562106 0.8898719 0 0.4112866 0.911506 0 0.4112866 0.911506 0 0.365341 0.9308737 0 0.365341 0.9308737 0 0.3184868 0.9479274 0 0.3184868 0.9479274 0 0.2708406 0.9626242 0 0.2708406 0.9626242 0 0.222521 0.9749279 0 0.222521 0.9749279 0 0.1736473 0.9848079 0 0.1736473 0.9848079 0 0.1243447 0.9922391 0 0.1243447 0.9922391 0 0.07472879 0.9972039 0 0.07472879 0.9972039 0 0.02493155 0.9996892 0 0.02493155 0.9996892 0 0 0 1 0 0 1 0 0 1 0 0 1 0 0 1 0 0 1 0 0 1 0 0 1 0 0 1 0 0 1 0 0 1 0 0 1 0 0 1 0 0 1 0 0 1 0 0 1 0 0 1 0 0 1 0 0 1 0 0 1 0 0 1 0 0 1 0 0 1 -0 0 1 0 0 1 0 0 1 0 0 1 0 0 1 0 0 1 0 0 1 -0 0 1 0 0 1 0 0 1 0 0 1 0 0 1 0 0 1 0 0 1 0 0 1 0 0 1 0 0 1 0 0 1 0 0 1 0 0 1 0 0 1 0 0 1 0 0 1 0 0 1 0 0 1 0 0 1 0 0 1 0 0 1 0 0 1 0 0 1 0 0 1 0 0 1 0 0 1 0 0 1 0 0 1 0 0 1 0 0 1 0 0 1 0 0 1 0 0 1 0 0 1 0 0 1 0 0 1 0 0 1 0 0 1 0 0 1 0 0 1 0 0 1 0 0 1 0 0 1 0 0 1 0 0 1 0 0 1 0 0 1 0 0 1 0 0 1 0 0 1 0 0 1 0 0 1 0 0 1 0 0 1 0 0 1 0 0 1 0 0 1 0 0 1 0 0 1 0 0 1 -0 0 1 0 0 1 0 0 1 0 0 1 0 0 1 0 0 1 0 0 1 0 0 1 -0 0 1 0 0 1 0 0 1 0 0 1 0 0 1 0 0 1 0 0 1 0 0 1 0 0 1 0 0 1 0 0 1 0 0 1 0 0 1 0 0 1 0 0 1 0 0 1 0 0 1 0 0 1 0 0 1 0 0 1 0 0 1 -0 0 1 0 0 1 0 0 1 0 0 1 0 0 1 0 0 -1 -0 0 -1 -0 0 -1 -0 0 -1 -0 0 -1 0 0 -1 -0 0 -1 -0 0 -1 -0 0 -1 -0 0 -1 -0 0 -1 -0 0 -1 -0 0 -1 -0 0 -1 -0 0 -1 0 0 -1 0 0 -1 -0 0 -1 0 0 -1 -0 0 -1 -0 0 -1 -0 0 -1 0 0 -1 0 0 -1 0 0 -1 0 0 -1 0 0 -1 0 0 -1 -0 0 -1 -0 0 -1 0 0 -1 0 0 -1 0 0 -1 0 0 -1 0 0 -1 0 0 -1 0 0 -1 0 0 -1 0 0 -1 0 0 -1 0 0 -1 0 0 -1 0 0 -1 0 0 -1 0 0 -1 0 0 -1 0 0 -1 0 0 -1 0 0 -1 0 0 -1 0 0 -1 0 0 -1 0 0 -1 0 0 -1 0 0 -1 0 0 -1 0 0 -1 0 0 -1 0 0 -1 0 0 -1 0 0 -1 0 0 -1 0 0 -1 0 0 -1 0 0 -1 0 0 -1 0 0 -1 0 0 -1 0 0 -1 0 0 -1 0 0 -1 0 0 -1 0 0 -1 0 0 -1 0 0 -1 0 0 -1 0 0 -1 0 0 -1 0 0 -1 0 0 -1 0 0 -1 0 0 -1 0 0 -1 0 0 -1 0 0 -1 0 0 -1 0 0 -1 0 0 -1 0 0 -1 0 0 -1 0 0 -1 0 0 -1 0 -0 -1 0 0 -1 0 0 -1 0 0 -1 0 0 -1 0 0 -1 0 0 -1 0 -0 -1 0 -0 -1 0 0 -1 0 -0 -1 0 -0 -1 0 0 -1 0 0 -1 0 -0 -1 0 -0 -1 0 0 -1 0 -0 -1 0 -0 -1 0 0 -1 0 0 -1 0 0 -1 0 0 -1 0 -0 -1 0 -0 -1 0 -0 -1 0 0 -1 0 0 -1 0 -0 -1 0 0 -1 0 -0 -1 0 0 -1</float_array>
          <technique_common>
            <accessor count="500" source="#cubenormals-array0-array" stride="3">
              <param type="float" name="X"/>
              <param type="float" name="Y"/>
              <param type="float" name="Z"/>
            </accessor>
          </technique_common>
        </source>
        <vertices id="cubeverts-array0-vertices">
          <input semantic="POSITION" source="#cubeverts-array0"/>
        </vertices>
        <triangles count="500" material="ref_Lidar__U__shape004">
          <input offset="0" semantic="VERTEX" source="#cubeverts-array0-vertices"/>
          <input offset="1" semantic="NORMAL" source="#cubenormals-array0"/>
          <p>0 0 1 0 2 0 0 1 2 1 3 1 4 2 3 2 5 2 4 3 0 3 3 3 6 4 5 4 7 4 6 5 4 5 5 5 8 6 7 6 9 6 8 7 9 7 10 7 8 8 6 8 7 8 11 9 8 9 10 9 12 10 10 10 13 10 12 11 11 11 10 11 14 12 13 12 15 12 14 13 15 13 16 13 14 14 12 14 13 14 17 15 14 15 16 15 18 16 16 16 19 16 18 17 19 17 20 17 18 18 17 18 16 18 21 19 18 19 20 19 22 20 21 20 20 20 22 21 20 21 23 21 24 22 22 22 23 22 24 23 23 23 25 23 24 24 25 24 26 24 27 25 24 25 26 25 27 26 26 26 28 26 29 27 27 27 28 27 30 28 29 28 28 28 30 29 28 29 31 29 32 30 30 30 31 30 32 31 31 31 33 31 34 32 32 32 33 32 34 33 33 33 35 33 34 34 35 34 36 34 37 35 34 35 36 35 38 36 37 36 36 36 38 37 36 37 39 37 40 38 38 38 39 38 40 39 39 39 41 39 42 40 40 40 41 40 42 41 41 41 43 41 44 42 42 42 43 42 44 43 43 43 45 43 44 44 45 44 46 44 47 45 44 45 46 45 48 46 46 46 49 46 48 47 47 47 46 47 50 48 49 48 51 48 50 49 48 49 49 49 52 50 51 50 53 50 52 51 50 51 51 51 54 52 53 52 55 52 54 53 52 53 53 53 56 54 55 54 57 54 56 55 57 55 58 55 56 56 54 56 55 56 59 57 56 57 58 57 60 58 58 58 61 58 60 59 59 59 58 59 62 60 61 60 63 60 62 61 60 61 61 61 64 62 63 62 65 62 64 63 65 63 66 63 64 64 62 64 63 64 67 65 64 65 66 65 68 66 66 66 69 66 68 67 67 67 66 67 70 68 69 68 71 68 70 69 68 69 69 69 72 70 71 70 73 70 72 71 70 71 71 71 74 72 72 72 73 72 74 73 73 73 75 73 76 74 74 74 75 74 76 75 75 75 77 75 78 76 76 76 77 76 78 77 77 77 79 77 80 78 78 78 79 78 80 79 79 79 81 79 82 80 80 80 81 80 82 81 81 81 83 81 84 82 82 82 83 82 84 83 83 83 85 83 86 84 84 84 85 84 86 85 85 85 87 85 86 86 87 86 88 86 89 87 86 87 88 87 90 88 89 88 88 88 90 89 88 89 91 89 92 90 90 90 91 90 92 91 91 91 93 91 94 92 92 92 93 92 94 93 93 93 95 93 96 94 94 94 95 94 96 95 95 95 97 95 98 96 96 96 97 96 98 97 97 97 99 97 100 98 98 98 99 98 100 99 99 99 101 99 100 100 101 100 102 100 103 101 100 101 102 101 104 102 103 102 102 102 104 103 102 103 105 103 106 104 104 104 105 104 106 105 105 105 107 105 108 106 106 106 107 106 108 107 107 107 109 107 110 108 108 108 109 108 110 109 109 109 111 109 112 110 110 110 111 110 112 111 111 111 113 111 114 112 112 112 113 112 114 113 113 113 115 113 114 114 115 114 116 114 117 115 114 115 116 115 118 116 116 116 119 116 118 117 117 117 116 117 120 118 119 118 121 118 120 119 118 119 119 119 122 120 121 120 123 120 122 121 120 121 121 121 124 122 122 122 123 122 124 123 123 123 125 123 124 124 125 124 126 124 127 125 124 125 126 125 128 126 127 126 126 126 128 127 126 127 129 127 130 128 128 128 129 128 130 129 129 129 131 129 132 130 130 130 131 130 132 131 131 131 133 131 134 132 132 132 133 132 134 133 133 133 135 133 136 134 134 134 135 134 136 135 135 135 137 135 138 136 136 136 137 136 138 137 137 137 139 137 140 138 138 138 139 138 140 139 139 139 141 139 142 140 140 140 141 140 142 141 141 141 143 141 144 142 142 142 143 142 144 143 143 143 145 143 146 144 144 144 145 144 146 145 145 145 147 145 148 146 146 146 147 146 148 147 147 147 149 147 150 148 149 148 151 148 150 149 148 149 149 149 152 150 151 150 153 150 152 151 150 151 151 151 154 152 153 152 155 152 154 153 152 153 153 153 156 154 155 154 157 154 156 155 154 155 155 155 158 156 157 156 159 156 158 157 156 157 157 157 160 158 159 158 161 158 160 159 158 159 159 159 162 160 161 160 163 160 162 161 160 161 161 161 164 162 163 162 165 162 164 163 165 163 166 163 164 164 162 164 163 164 167 165 164 165 166 165 168 166 166 166 169 166 168 167 169 167 170 167 168 168 167 168 166 168 171 169 168 169 170 169 172 170 170 170 173 170 172 171 171 171 170 171 174 172 173 172 175 172 174 173 175 173 176 173 174 174 172 174 173 174 177 175 174 175 176 175 178 176 177 176 176 176 178 177 176 177 179 177 180 178 178 178 179 178 180 179 179 179 181 179 182 180 180 180 181 180 182 181 181 181 183 181 184 182 183 182 185 182 184 183 185 183 186 183 184 184 182 184 183 184 187 185 184 185 186 185 188 186 186 186 189 186 188 187 187 187 186 187 190 188 189 188 191 188 190 189 188 189 189 189 192 190 191 190 193 190 192 191 190 191 191 191 194 192 193 192 195 192 194 193 192 193 193 193 196 194 195 194 197 194 196 195 194 195 195 195 198 196 197 196 199 196 198 197 199 197 200 197 198 198 196 198 197 198 201 199 198 199 200 199 202 200 200 200 203 200 202 201 201 201 200 201 204 202 203 202 205 202 204 203 202 203 203 203 206 204 205 204 207 204 206 205 204 205 205 205 208 206 207 206 209 206 208 207 206 207 207 207 210 208 209 208 211 208 210 209 208 209 209 209 212 210 211 210 213 210 212 211 213 211 214 211 212 212 210 212 211 212 215 213 214 213 216 213 215 214 212 214 214 214 217 215 215 215 216 215 218 216 216 216 219 216 218 217 217 217 216 217 220 218 219 218 221 218 220 219 218 219 219 219 222 220 221 220 223 220 222 221 220 221 221 221 224 222 223 222 225 222 224 223 225 223 226 223 224 224 222 224 223 224 227 225 224 225 226 225 228 226 227 226 226 226 228 227 226 227 229 227 228 228 229 228 230 228 231 229 228 229 230 229 232 230 231 230 230 230 232 231 230 231 233 231 234 232 232 232 233 232 234 233 233 233 235 233 234 234 235 234 236 234 237 235 234 235 236 235 238 236 237 236 236 236 238 237 236 237 239 237 240 238 238 238 239 238 240 239 239 239 241 239 242 240 240 240 241 240 242 241 241 241 243 241 242 242 243 242 244 242 245 243 242 243 244 243 246 244 245 244 244 244 246 245 244 245 247 245 248 246 246 246 247 246 248 247 247 247 249 247 250 248 249 248 251 248 250 249 248 249 249 249 1 250 251 250 2 250 1 251 250 251 251 251 160 252 156 252 158 252 152 253 156 253 160 253 152 254 154 254 156 254 152 255 160 255 162 255 146 256 148 256 150 256 172 257 168 257 171 257 142 258 146 258 150 258 142 259 144 259 146 259 138 260 152 260 162 260 138 261 142 261 150 261 138 262 140 262 142 262 138 263 150 263 152 263 138 264 162 264 164 264 138 265 164 265 167 265 138 266 167 266 168 266 178 267 172 267 174 267 178 268 174 268 177 268 134 269 136 269 138 269 184 270 180 270 182 270 128 271 130 271 132 271 127 272 132 272 134 272 127 273 128 273 132 273 190 274 187 274 188 274 124 275 127 275 134 275 192 276 187 276 190 276 120 277 122 277 124 277 196 278 192 278 194 278 118 279 120 279 124 279 118 280 168 280 172 280 118 281 138 281 168 281 118 282 124 282 134 282 118 283 134 283 138 283 201 284 192 284 196 284 201 285 196 285 198 285 201 286 187 286 192 286 114 287 117 287 118 287 202 288 187 288 201 288 202 289 184 289 187 289 110 290 112 290 114 290 206 291 202 291 204 291 206 292 184 292 202 292 108 293 110 293 114 293 212 294 206 294 208 294 212 295 208 295 210 295 100 296 103 296 104 296 100 297 104 297 106 297 217 298 212 298 215 298 98 299 100 299 106 299 218 300 206 300 212 300 218 301 212 301 217 301 220 302 184 302 206 302 220 303 206 303 218 303 220 304 172 304 178 304 220 305 180 305 184 305 220 306 118 306 172 306 220 307 178 307 180 307 220 308 114 308 118 308 94 309 96 309 98 309 224 310 220 310 222 310 89 311 98 311 106 311 89 312 90 312 92 312 89 313 92 313 94 313 89 314 94 314 98 314 231 315 224 315 227 315 231 316 227 316 228 316 231 317 220 317 224 317 234 318 231 318 232 318 78 319 80 319 82 319 78 320 82 320 84 320 78 321 84 321 86 321 78 322 86 322 89 322 238 323 234 323 237 323 238 324 220 324 231 324 238 325 231 325 234 325 242 326 114 326 220 326 242 327 238 327 240 327 242 328 220 328 238 328 72 329 74 329 76 329 72 330 76 330 78 330 72 331 78 331 89 331 248 332 245 332 246 332 250 333 245 333 248 333 250 334 242 334 245 334 64 335 108 335 114 335 64 336 67 336 68 336 64 337 68 337 70 337 64 338 70 338 72 338 64 339 89 339 106 339 64 340 106 340 108 340 64 341 72 341 89 341 64 342 114 342 242 342 1 343 242 343 250 343 59 344 60 344 62 344 59 345 62 345 64 345 6 346 1 346 0 346 6 347 0 347 4 347 8 348 64 348 242 348 8 349 1 349 6 349 8 350 242 350 1 350 54 351 59 351 64 351 54 352 56 352 59 352 12 353 8 353 11 353 50 354 54 354 64 354 50 355 52 355 54 355 14 356 8 356 12 356 17 357 8 357 14 357 47 358 48 358 50 358 47 359 50 359 64 359 18 360 8 360 17 360 42 361 44 361 47 361 40 362 42 362 47 362 24 363 18 363 21 363 24 364 21 364 22 364 27 365 8 365 18 365 27 366 18 366 24 366 37 367 38 367 40 367 34 368 40 368 47 368 34 369 37 369 40 369 30 370 27 370 29 370 32 371 64 371 8 371 32 372 47 372 64 372 32 373 27 373 30 373 32 374 34 374 47 374 32 375 8 375 27 375 157 376 161 376 159 376 157 377 153 377 161 377 155 378 153 378 157 378 161 379 153 379 163 379 149 380 147 380 151 380 169 381 173 381 170 381 147 382 143 382 151 382 145 383 143 383 147 383 153 384 139 384 163 384 143 385 139 385 151 385 141 386 139 386 143 386 151 387 139 387 153 387 163 388 139 388 165 388 165 389 139 389 166 389 166 390 139 390 169 390 173 391 179 391 175 391 175 392 179 392 176 392 137 393 135 393 139 393 181 394 185 394 183 394 131 395 129 395 133 395 133 396 126 396 135 396 129 397 126 397 133 397 186 398 191 398 189 398 126 399 125 399 135 399 186 400 193 400 191 400 123 401 121 401 125 401 193 402 197 402 195 402 121 403 119 403 125 403 169 404 119 404 173 404 139 405 119 405 169 405 125 406 119 406 135 406 135 407 119 407 139 407 193 408 200 408 197 408 197 409 200 409 199 409 186 410 200 410 193 410 116 411 115 411 119 411 186 412 203 412 200 412 185 413 203 413 186 413 113 414 111 414 115 414 203 415 207 415 205 415 185 416 207 416 203 416 111 417 109 417 115 417 207 418 213 418 209 418 209 419 213 419 211 419 102 420 101 420 105 420 105 421 101 421 107 421 213 422 216 422 214 422 101 423 99 423 107 423 207 424 219 424 213 424 213 425 219 425 216 425 185 426 221 426 207 426 207 427 221 427 219 427 173 428 221 428 179 428 181 429 221 429 185 429 119 430 221 430 173 430 179 431 221 431 181 431 115 432 221 432 119 432 97 433 95 433 99 433 221 434 225 434 223 434 99 435 88 435 107 435 91 436 88 436 93 436 93 437 88 437 95 437 95 438 88 438 99 438 225 439 230 439 226 439 226 440 230 440 229 440 221 441 230 441 225 441 230 442 235 442 233 442 81 443 79 443 83 443 83 444 79 444 85 444 85 445 79 445 87 445 87 446 79 446 88 446 235 447 239 447 236 447 221 448 239 448 230 448 230 449 239 449 235 449 115 450 243 450 221 450 239 451 243 451 241 451 221 452 243 452 239 452 75 453 73 453 77 453 77 454 73 454 79 454 79 455 73 455 88 455 244 456 249 456 247 456 244 457 251 457 249 457 243 458 251 458 244 458 109 459 65 459 115 459 66 460 65 460 69 460 69 461 65 461 71 461 71 462 65 462 73 462 88 463 65 463 107 463 107 464 65 464 109 464 73 465 65 465 88 465 115 466 65 466 243 466 243 467 2 467 251 467 61 468 58 468 63 468 63 469 58 469 65 469 2 470 7 470 3 470 3 471 7 471 5 471 65 472 9 472 243 472 2 473 9 473 7 473 243 474 9 474 2 474 58 475 55 475 65 475 57 476 55 476 58 476 9 477 13 477 10 477 55 478 51 478 65 478 53 479 51 479 55 479 9 480 15 480 13 480 9 481 16 481 15 481 49 482 46 482 51 482 51 483 46 483 65 483 9 484 19 484 16 484 45 485 43 485 46 485 43 486 41 486 46 486 19 487 25 487 20 487 20 488 25 488 23 488 9 489 26 489 19 489 19 490 26 490 25 490 39 491 36 491 41 491 41 492 35 492 46 492 36 493 35 493 41 493 26 494 31 494 28 494 65 495 33 495 9 495 46 496 33 496 65 496 26 497 33 497 31 497 35 498 33 498 46 498 9 499 33 499 26 499</p>
        </triangles>
      </mesh>
    </geometry>
  </library_geometries>
  <library_materials>
    <material id="mat_Lidar__U__shape004" name="Lidar__U__shape004">
      <instance_effect url="#effect_Lidar__U__shape004"/>
    </material>
  </library_materials>
  <library_visual_scenes>
    <visual_scene id="myscene">
      <node id="node0" name="node0">
        <instance_geometry url="#geometry0">
          <bind_material>
            <technique_common>
              <instance_material symbol="ref_Lidar__U__shape004" target="#mat_Lidar__U__shape004"/>
            </technique_common>
          </bind_material>
        </instance_geometry>
      </node>
    </visual_scene>
  </library_visual_scenes>
  <scene>
    <instance_visual_scene url="#myscene"/>
  </scene>
</COLLADA>
